<?xml version="1.0" standalone="no"?>
<!DOCTYPE svg PUBLIC "-//W3C//DTD SVG 1.1//EN" "http://www.w3.org/Graphics/SVG/1.1/DTD/svg11.dtd" >
<svg xmlns="http://www.w3.org/2000/svg" xmlns:xlink="http://www.w3.org/1999/xlink" version="1.1">
<metadata>
Created by FontForge 20201107 at Thu Sep  7 18:18:20 2017
 By 
</metadata>
<defs>
<font id="icons8" horiz-adv-x="1024" >
  <font-face 
    font-family="icons8"
    font-weight="400"
    font-stretch="normal"
    units-per-em="1024"
    panose-1="0 0 0 0 0 0 0 0 0 0"
    ascent="896"
    descent="-128"
    bbox="-1 -129.108 1025 896"
    underline-thickness="0"
    underline-position="0"
    unicode-range="U+0001-FFFD"
  />
<missing-glyph 
 />
    <glyph glyph-name=".notdef" unicode="&#xfffd;" 
 />
    <glyph glyph-name="glyph1" horiz-adv-x="0" 
d="M0 0v0v0v0z" />
    <glyph glyph-name="glyph1" horiz-adv-x="0" 
d="M0 0v0v0v0z" />
    <glyph glyph-name="nonmarkingreturn" horiz-adv-x="341" 
 />
    <glyph glyph-name="uni0001" horiz-adv-x="0" 
d="M0 0v0v0v0z" />
    <glyph glyph-name="space" unicode=" " horiz-adv-x="0" 
d="M0 0v0v0v0z" />
    <glyph glyph-name="uniE900" unicode="&#xe900;" 
d="M530 828q-72 -1 -117.5 -28.5t-65.5 -72.5q-19 -43 -17 -95.5t15 -108.5q-7 -9 -12 -21t-3 -30v-1q2 -19 7.5 -32.5t12.5 -22.5q4 -5 8.5 -6t8.5 -4q3 -16 7 -32t10 -29q3 -8 7 -14.5t8 -12.5q2 -3 4.5 -5t4.5 -4v-73q-5 -12 -17 -22t-30 -19q-19 -10 -43.5 -19.5
t-49.5 -20.5t-50 -25.5t-45 -36.5q-21 -21 -34.5 -50t-15.5 -67l-1 -22h821l-1 22q-2 38 -15.5 67t-34.5 50q-20 22 -45 36.5t-51 25.5q-25 11 -49.5 20.5t-43.5 19.5q-19 9 -30.5 19t-17.5 22v74q2 2 4.5 4t4.5 4q4 6 8 12.5t7 14.5q6 13 10 29t7 32q5 2 10 3.5t9 6.5
q7 10 11.5 23.5t6.5 32.5q1 17 -3 29t-11 21q8 24 15 61t4 77q-2 23 -8 44t-20 40q-11 16 -30 27.5t-43 16.5q-16 22 -44.5 31t-61.5 9h-1zM531 787v0v0q31 0 50 -7.5t26 -18.5l5 -9l10 -1q21 -3 34 -11t21 -20q9 -12 14 -28t6 -35q3 -37 -5 -75t-15 -58l-6 -17l16 -8
q0 -1 3 -6.5t2 -16.5v0v0q-1 -15 -4 -23.5t-6 -11.5q-2 -3 -3.5 -3.5t-0.5 -0.5h-19l-2 -18q-1 -14 -5.5 -29t-10.5 -28q-3 -6 -5.5 -11.5t-5.5 -9.5q-2 -4 -4.5 -6t-0.5 -1l-11 -6v-94v-1.5v-0.5v-2q0 1 -3.5 -4.5t-14.5 -11.5t-27.5 -10t-36.5 -4q-19 0 -35.5 3.5
t-27.5 9.5t-14.5 11t-3.5 6q0 3 -0.5 5t-1.5 4v89l-11 6q2 -1 -0.5 1t-4.5 6q-3 4 -6 9.5t-6 11.5q-6 13 -10.5 28t-5.5 29l-1 18h-17q-1 0 -2.5 1t-2.5 3q-3 4 -6 12t-5 23v0v0v0.5v0.5q-1 11 3.5 17.5t3.5 5.5l12 8l-3 14q-15 56 -16 105t14 83q15 35 48 55.5t98 21.5v0z
M428 192q5 -5 10.5 -8.5t12.5 -6.5q16 -9 37 -13.5t44 -4.5q24 0 45.5 5t37.5 13q6 3 11.5 6.5t9.5 7.5q10 -10 22.5 -18.5t26.5 -15.5q22 -11 46.5 -20t48.5 -20q24 -10 45.5 -22.5t37.5 -29.5q13 -13 21 -30.5t12 -39.5h-727q4 22 12 39.5t21 30.5q16 17 37.5 29.5
t45.5 22.5q24 11 48 20t47 20q13 7 25.5 15.5t22.5 19.5v0z" />
    <glyph glyph-name="uniE901" unicode="&#xe901;" 
d="M785 855h-11t-11 -1q-14 -1 -28 -4t-28 -8v0v0q-2 0 -2.5 -0.5l-0.5 -0.5l-29 -11l283 -283l11 29q0 1 0.5 2.5t1.5 3.5q19 54 7 112t-55 101q-29 29 -65 44t-73 16zM237 855q-37 -2 -72.5 -17t-63.5 -43q-44 -44 -55.5 -102.5t8.5 -113.5v0q0 -2 0.5 -2.5l0.5 -0.5
l11 -29l283 283l-29 11q-1 0 -2.5 1t-3.5 1q-14 5 -28 8t-28 4h-10.5h-10.5v0zM239 814h8.5h8.5t8 -1.5t8 -1.5l-187 -187q-6 38 5 75.5t40 66.5q23 23 51 35t58 13v0zM783 814q30 -1 59 -13t52 -35q29 -29 40 -66.5t5 -75.5l-187 187q4 0 7.5 1t6.5 2h8.5h8.5zM512 773
q-89 0 -167.5 -34t-136.5 -92t-92 -136.5t-34 -167.5q0 -44 8.5 -85t24 -79t38.5 -72t51 -64l-96 -95q-4 -4 -5.5 -9.5t0.5 -10.5q1 -5 5 -9t9 -6q6 -1 11.5 0.5t8.5 5.5l97 96q56 -47 127 -74.5t151 -27.5t151 27.5t127 74.5l97 -96q3 -4 8.5 -5.5t11.5 -0.5q5 2 9 6t5 9
q2 5 0.5 10.5t-5.5 9.5l-96 95q28 30 51 64t38.5 72t24 79t8.5 85q0 89 -34 167.5t-92 136.5t-136.5 92t-167.5 34v0zM512 732q81 0 151.5 -30.5t123.5 -83.5t83.5 -123.5t30.5 -151.5t-30.5 -151.5t-83.5 -123.5t-123.5 -83.5t-151.5 -30.5t-151.5 30.5t-123.5 83.5
t-83.5 123.5t-30.5 151.5t30.5 151.5t83.5 123.5t123.5 83.5t151.5 30.5zM512 651q-9 -1 -15 -7t-5 -14v-266h-144q-5 0 -10 -3t-8 -8q-3 -4 -3 -9.5t3 -10.5t8 -7.5t10 -2.5h161q5 -1 9.5 0.5t8.5 4.5v0.5v0.5v0v0v0v0q3 3 4.5 7.5t0.5 9.5v284q1 4 -1 8t-5 7q-2 2 -6 4
t-8 2z" />
    <glyph glyph-name="uniE902" unicode="&#xe902;" 
d="M293 855l-5 -13l-10 -28.5t-21.5 -75.5t-21.5 -107.5t-10 -123.5q0 -56 21.5 -103t58 -82t84.5 -56t103 -25v-125q0 -15 -7 -27.5t-19 -23.5q-12 -12 -29.5 -22t-35.5 -17q-36 -16 -66.5 -22.5l-30.5 -6.5v0h-1q-11 -2 -21 -7.5t-18 -13.5t-13 -19t-5 -24q0 -8 6 -14
t14 -6h492q8 0 14 6t6 14q0 13 -5 24t-13 19t-18 13.5t-21 7.5h-1v0l-30.5 6.5t-66.5 22.5q-18 7 -35.5 17t-29.5 22q-12 11 -19 23.5t-7 27.5v125q55 4 103 25t84.5 56t58 82t21.5 103q0 63 -10 123.5t-21.5 107.5t-21.5 75.5l-10 28.5l-5 13h-438zM323 814h378
q4 -9 16 -48t23 -95v0h-1h-455q11 56 23 95t16 48v0zM747 631v0h1q4 -29 7 -60.5t3 -63.5q0 -49 -19.5 -90.5t-53.5 -71.5t-78.5 -46.5t-94.5 -16.5t-94.5 16.5t-78.5 46.5t-53.5 71t-19.5 91q0 32 3 63t7 60h2h2h459h4t4 1zM512 58q4 -6 8.5 -12t9.5 -11q16 -15 36 -27
t40 -20q40 -17 73.5 -24t33.5 -8h0.5h0.5q1 0 1.5 -1t1.5 -1h-410q1 0 1.5 1t1.5 1h0.5h0.5q0 1 33.5 8t73.5 24q20 8 40 20t36 27q5 5 9.5 11t8.5 12v0z" />
    <glyph glyph-name="uniE903" unicode="&#xe903;" 
d="M17 650q-8 -1 -12.5 -7t-4.5 -13v-76q-2 -7 0.5 -14t9.5 -10l0.5 -0.5l0.5 -0.5v0h1v0h1v-1v0h1h1v0v0q1 0 2 -0.5t2 -0.5h0.5h0.5v0v0q19 0 30 -11t11 -30v-143q0 -76 46.5 -136t116.5 -80q-3 -14 -13.5 -22t-26.5 -8q-5 0 -10 -2.5t-8 -7.5q-2 -5 -2 -10.5t2 -10.5
q3 -4 8 -7t10 -3q29 0 51 18t29 45q5 -1 11 -1h12h450h12t11 1q7 -27 29 -45t51 -18q5 0 10 3t8 7q2 5 2 10.5t-2 10.5q-3 5 -8 7.5t-10 2.5q-16 0 -26.5 8t-13.5 22q70 20 116.5 80t46.5 136v143q0 19 11 30t30 11q1 0 2.5 0.5t2.5 0.5l4 2l4 2q0 1 0.5 1h0.5v0.5v0.5
q1 0 1.5 1t1.5 1v0.5v0.5q1 2 2 3.5t1 3.5v1.5v1.5v0.5v0.5v2v1.5v0.5v78q0 8 -6 14t-14 6h-984h-0.5h-0.5h-1.5h-0.5v0zM41 609h942v-41h-942v41zM91 527h842q-5 -9 -8 -19t-3 -22v-143q0 -76 -54.5 -130t-130.5 -54h-450q-76 0 -130.5 54t-54.5 130v143q0 12 -3 22t-8 19
v0z" />
    <glyph glyph-name="uniE904" unicode="&#xe904;" 
d="M82 896v-1024h860v1024h-860zM123 855h778v-942h-778v942zM266 671v-41h492v41h-492zM266 384v-41h287v41h-287zM655 384v-41h103v41h-103zM266 261v-41h287v41h-287zM655 261v-41h103v41h-103zM266 138v-41h287v41h-287zM655 138v-41h103v41h-103z" />
    <glyph glyph-name="uniE905" unicode="&#xe905;" 
d="M389 896q-80 0 -150.5 -27t-123.5 -74t-84 -110t-31 -135q0 -70 29.5 -132t79.5 -108q-8 -22 -22.5 -39.5t-30.5 -31.5q-10 -7 -18.5 -14t-16.5 -13q-4 -3 -7 -6.5t-6 -7.5q-3 -5 -5 -12t0 -14l2 -8l7 -5q16 -9 35 -11t39 -1q21 2 42.5 6.5t43.5 10.5q29 8 54.5 17.5
t46.5 17.5q21 -49 57.5 -89.5t83.5 -69.5t103 -45.5t118 -16.5q21 0 41.5 3t39.5 6q21 -10 57 -24t78 -26q43 -11 84.5 -16t73.5 13l8 5l2 7q2 8 0 14.5t-5 11.5q-2 4 -5.5 7.5t-6.5 7.5q-8 6 -17 13t-18 15q-17 14 -31.5 31.5t-22.5 38.5q50 47 79.5 108.5t29.5 130.5
q0 57 -19.5 109t-54.5 95t-83 75t-105 49q-19 53 -54.5 98t-84.5 77.5t-108 50.5t-124 18v0zM389 855q72 0 135.5 -24t110 -65.5t73.5 -97t27 -118.5t-27 -118.5t-74.5 -97t-110.5 -66t-136 -24.5q-21 0 -41 2t-38 6l-7 2l-6 -2l-5 -2.5l-5 -2.5h-1.5h-0.5q-4 0 -7 -1.5
t-6 -4.5q-22 -9 -50 -19t-59 -19q-21 -6 -41 -10t-37 -5q-7 0 -11.5 1.5t-10.5 1.5q5 4 9.5 7.5t10.5 8.5q21 17 42.5 42t29.5 61l3 12l-9 8q-50 42 -78 98.5t-28 121.5q0 63 27 118.5t74.5 97t111 65.5t135.5 24zM771 605l6 -2l6 -2q-2 -3 -3.5 -6t-1.5 -6q0 -9 6 -15
t15 -6q7 0 12 4.5t7 11.5q34 -19 62 -44t49 -56q-2 1 -3.5 1.5t-3.5 0.5q-9 0 -15 -6t-6 -14q0 -9 6 -15t15 -6q8 0 14 6t6 14q7 -12 13 -25t11 -26q-1 -2 -2 -4.5t-1 -5.5q0 -5 3 -9.5t7 -7.5q4 -15 6 -30.5t2 -32.5q0 -5 -0.5 -11t-0.5 -12q-7 -1 -12 -6.5t-5 -12.5
q0 -6 3 -11t8 -7q-10 -46 -35.5 -86.5t-62.5 -72.5l-10 -8l3 -13q8 -31 25 -53t35 -38q-2 1 -3.5 1.5t-3.5 0.5q-9 0 -15 -6t-6 -15q0 -1 0.5 -2.5t0.5 -2.5q-9 1 -19.5 3t-21.5 5q-32 9 -62.5 20.5t-52.5 20.5q5 2 8.5 7t3.5 11q0 8 -6 14t-15 6q-8 0 -14 -6t-6 -14
q0 -2 0.5 -4t1.5 -4h-3q-20 -4 -40.5 -6.5t-40.5 -2.5h-4.5h-4.5q4 3 6.5 7.5t2.5 9.5q0 8 -6 14t-15 6q-8 0 -14 -6t-6 -14q0 -4 1.5 -8t4.5 -7q-23 2 -45.5 6.5t-43.5 11.5q-1 7 -6.5 12t-12.5 5q-4 0 -7.5 -1t-5.5 -3q-13 5 -24.5 11.5t-23.5 13.5q8 0 14 6t6 14
q0 9 -6 15t-15 6q-8 0 -14 -6t-6 -15v-3t1 -3q-16 11 -30 24.5t-26 27.5q3 -2 6.5 -3.5t7.5 -1.5q8 0 14 6t6 15q0 8 -6 14t-14 6q-9 0 -15 -6t-6 -14q0 -4 1.5 -7t3.5 -5q-11 13 -20.5 26.5t-16.5 28.5q3 1 4.5 3t3.5 4q16 -2 31.5 -3.5t31.5 -1.5h14.5t14.5 1q3 -3 6.5 -4
t7.5 -1q5 0 9 2t7 6q23 3 45.5 8.5t44.5 13.5q-2 -2 -3 -4.5t-1 -5.5q0 -8 6 -14t15 -6q8 0 14 6t6 14q0 7 -4 12.5t-11 6.5l24 12t23 13q3 -1 5 -2t4 -1q9 0 15 6t6 15l-0.5 0.5l-0.5 0.5q13 9 25 19.5t23 21.5q5 1 8.5 5.5t4.5 9.5q10 11 19 22.5t16 24.5q2 -1 3.5 -1.5
t3.5 -0.5q9 0 15 6t6 14q0 6 -3 10t-7 7q14 30 21 62.5t7 66.5q0 14 -1 28t-4 27v0zM860 548q-8 0 -14 -6t-6 -15q0 -8 6 -14t14 -6q9 0 15 6t6 14q0 9 -6 15t-15 6zM799 486q-9 0 -15 -6t-6 -14q0 -9 6 -15t15 -6q8 0 14 6t6 15q0 8 -6 14t-14 6zM860 425q-8 0 -14 -6
t-6 -15q0 -8 6 -14t14 -6q9 0 15 6t6 14q0 9 -6 15t-15 6v0zM799 364q-9 0 -15 -6.5t-6 -14.5t6 -14t15 -6q8 0 14 6t6 14t-6 14.5t-14 6.5zM922 364q-9 0 -15 -6.5t-6 -14.5t6 -14t15 -6q8 0 14 6t6 14t-6 14.5t-14 6.5zM737 302q-8 0 -14 -6t-6 -14q0 -9 6 -15t14 -6
q9 0 15 6t6 15q0 8 -6 14t-15 6zM860 302q-8 0 -14 -6t-6 -14q0 -9 6 -15t14 -6q9 0 15 6t6 15q0 8 -6 14t-15 6zM676 241q-9 0 -15 -6t-6 -15q0 -8 6 -14t15 -6q8 0 14 6t6 14q0 9 -6 15t-14 6zM799 241q-9 0 -15 -6t-6 -15q0 -8 6 -14t15 -6q8 0 14 6t6 14q0 9 -6 15
t-14 6zM922 241q-9 0 -15 -6t-6 -15q0 -8 6 -14t15 -6q8 0 14 6t6 14q0 9 -6 15t-14 6zM492 179q-9 0 -15 -6t-6 -14q0 -9 6 -15t15 -6q8 0 14 6t6 15q0 8 -6 14t-14 6zM614 179q-8 0 -14 -6t-6 -14q0 -9 6 -15t14 -6q9 0 15 6t6 15q0 8 -6 14t-15 6zM737 179q-8 0 -14 -6
t-6 -14q0 -9 6 -15t14 -6q9 0 15 6t6 15q0 8 -6 14t-15 6zM860 179q-8 0 -14 -6t-6 -14q0 -9 6 -15t14 -6q9 0 15 6t6 15q0 8 -6 14t-15 6zM553 118q-8 0 -14.5 -6t-6.5 -15q0 -8 6 -14t15 -6q8 0 14 6t6 14q0 9 -6 15t-14 6zM676 118q-9 0 -15 -6t-6 -15q0 -8 6 -14t15 -6
q8 0 14 6t6 14q0 9 -6 15t-14 6zM799 118q-9 0 -15 -6t-6 -15q0 -8 6 -14t15 -6q8 0 14 6t6 14q0 9 -6 15t-14 6zM860 56q-8 0 -14 -6t-6 -14q0 -9 6 -15t14 -6q9 0 15 6t6 15q0 8 -6 14t-15 6zM938 -14l1.5 -1.5l1.5 -1.5q6 -5 11 -8.5t10 -7.5q-5 -1 -10.5 -1h-11.5
q0 2 1 4t1 4q0 4 -1 6.5t-3 5.5v0z" />
    <glyph glyph-name="uniE906" unicode="&#xe906;" 
d="M172 855q-20 0 -36 -12t-21 -31v-0.5v-1.5l-115 -720v-2v-2v-74q0 -24 17 -41t41 -17h908q19 0 32.5 9.5t19.5 20.5q5 10 5.5 18.5t0.5 9.5v0.5v0.5v70v2.5v0.5q0 1 -0.5 1.5l-0.5 0.5v3.5v3.5q-1 5 -2 10.5t-2 13.5q-2 15 -5.5 36.5t-7.5 46.5q-8 51 -18.5 116.5
t-21.5 132.5q-10 68 -20.5 132.5t-18.5 115t-13 81l-5 30.5v1.5v0.5q-5 19 -21 31t-36 12h-680zM172 814h680q6 0 11 -3.5t6 -9.5q0 -1 5 -31.5t13 -80.5t18 -113.5t21 -130.5q11 -68 21 -133t18 -116q4 -26 7.5 -47t6.5 -36q1 -7 1.5 -13.5t1.5 -10.5q0 -2 0.5 -3.5
t0.5 -2.5v-1.5v-0.5v-69v-1v0v-3t-2 -6q-1 -3 -3 -5t-12 -2h-908q-7 0 -12 4.5t-5 12.5v71l114 718q1 6 6 9.5t11 3.5v0zM193 794q-7 -2 -11.5 -6.5t-5.5 -11.5l-94 -655q-1 -5 0.5 -9t4.5 -8q3 -3 7 -5t8 -2h820q4 0 8 2t7 5q3 4 4.5 8t0.5 9l-94 655q-1 8 -7 13t-13 5
h-632h-0.5h-0.5h-1.5h-0.5v0zM214 753h596l88 -615h-772zM285 712q-7 -2 -11.5 -7t-5.5 -11l-13 -103q0 -4 1 -8t4 -8q3 -3 7 -5t9 -2h101q8 0 14 5.5t6 14.5l8 102q0 4 -1.5 8t-3.5 7q-3 3 -7 5t-8 2h-96h-1.5h-0.5h-1.5h-0.5v0zM460 712q-7 -2 -11.5 -7.5t-4.5 -12.5
l-3 -103q0 -4 1.5 -7.5t4.5 -6.5t6.5 -5t7.5 -2h102q4 0 7.5 2t6.5 5t4.5 6.5t1.5 7.5l-3 103q0 8 -6 14t-14 6h-96h-0.5h-1.5h-0.5h-1.5v0zM636 712q-8 -2 -13 -8t-4 -14l8 -102q0 -9 6 -14.5t14 -5.5h101q5 0 9 2t7 5q3 4 4 8t1 8l-13 103q-1 7 -7 12.5t-14 5.5h-96h-0.5
h-1.5h-0.5h-0.5v0zM307 671h55l-4 -62h-59zM484 671h56l1 -62h-58zM662 671h55l8 -62h-59zM264 548q-7 -1 -11.5 -6t-5.5 -12l-15 -123q-1 -4 0.5 -8.5t3.5 -7.5q3 -3 7 -5t9 -2h112q8 0 14 5.5t6 13.5l9 123q0 4 -1.5 8t-4.5 7q-2 3 -6 5t-9 2h-104h-1.5h-0.5h-1.5h-0.5z
M456 548q-7 -2 -12 -7.5t-5 -12.5l-3 -123q0 -4 1.5 -8t4.5 -7q2 -3 6 -4.5t8 -1.5h112q4 0 8 1.5t6 4.5q3 3 4.5 7t1.5 8l-3 123q0 8 -6 14t-15 6h-104h-1.5h-0.5h-1.5h-0.5zM648 548q-8 -2 -13 -8t-4 -14l9 -123q0 -8 6 -13.5t14 -5.5h112q5 0 9 2t7 5q2 3 3.5 7.5
t0.5 8.5l-15 123q-1 8 -7 13t-14 5h-104h-1.5h-0.5h-1.5h-0.5v0zM285 507h66l-7 -82h-69zM479 507h66l2 -82h-70zM673 507h66l10 -82h-69zM240 364q-7 -2 -11.5 -7t-5.5 -11l-18 -144q-1 -4 0.5 -8.5t4.5 -7.5t7 -5t8 -2h123q8 0 14 5.5t7 13.5l10 144q0 4 -1.5 8t-3.5 7
q-3 3 -7 4.5t-8 2.5h-115h-1.5h-0.5h-1.5h-0.5v0zM451 364q-8 -2 -12.5 -7.5t-4.5 -12.5l-4 -144q0 -4 1.5 -8t4.5 -7t6.5 -4.5t8.5 -1.5h122q5 0 8.5 1.5t6.5 4.5t4.5 7t1.5 8l-4 144q0 8 -6 14t-14 6h-116h-0.5h-1.5h-0.5h-0.5zM663 364q-8 -1 -13 -7.5t-5 -14.5l10 -144
q1 -8 7 -13.5t14 -5.5h123q4 0 8 2t7 5t4.5 7.5t0.5 8.5l-18 144q-1 7 -7 12.5t-14 5.5h-115h-1h-1v0zM262 323h75l-8 -103h-80zM474 323h76l2 -103h-80zM687 323h75l13 -103h-80z" />
    <glyph glyph-name="uniE907" unicode="&#xe907;" 
d="M266 712q-25 0 -43 -18t-18 -44v-20h-62q-25 0 -43 -18t-18 -44v-102h-41q-17 0 -29 -12t-12 -29v-82q0 -17 12 -29t29 -12h41v-102q0 -26 18 -44t43 -18h62v-20q0 -25 18 -43.5t43 -18.5h62q25 0 43 18t18 44v184h246v-184q0 -25 18 -43.5t43 -18.5h62q25 0 43 18t18 44
v20h62q25 0 43 18t18 44v102h41q17 0 29 12t12 29v82q0 17 -12 29t-29 12h-41v102q0 26 -18 44t-43 18h-62v20q0 25 -18 43.5t-43 18.5h-62q-25 0 -43 -18t-18 -44v-184h-246v184q0 25 -18 43.5t-43 18.5h-62zM266 671h62q8 0 14 -6t6 -15v-532q0 -9 -6 -15t-14 -6h-62
q-8 0 -14 6t-6 15v37v3.5v3.5v444v3.5v2.5v38q0 9 6 15t14 6v0zM696 671h62q8 0 14 -6t6 -15v-37v-3.5v-3.5v-444v-3.5v-2.5v-38q0 -9 -6 -15t-14 -6h-62q-8 0 -14 6t-6 15v532q0 9 6 15t14 6v0zM143 589h62v-410h-62q-8 0 -14 6t-6 15v119v3.5v3.5v116v3.5v3.5v119
q0 9 6 15t14 6v0zM819 589h62q8 0 14 -6t6 -15v-119v-3.5v-3.5v-116v-3.5v-3.5v-119q0 -9 -6 -15t-14 -6h-62v410zM41 425h41v-82h-41v82zM389 425h246v-82h-246v82zM942 425h41v-82h-41v82z" />
    <glyph glyph-name="uniE908" unicode="&#xe908;" 
d="M512 896q-106 0 -199 -40.5t-162.5 -110t-110 -162.5t-40.5 -199t40.5 -199t110 -162.5t162.5 -110t199 -40.5t199 40.5t162.5 110t110 162.5t40.5 199t-40.5 199t-110 162.5t-162.5 110t-199 40.5zM512 855q98 0 183.5 -37t149.5 -101t101 -149.5t37 -183.5t-37 -183.5
t-101 -149.5t-149.5 -101t-183.5 -37t-183.5 37t-149.5 101t-101 149.5t-37 183.5t37 183.5t101 149.5t149.5 101t183.5 37v0zM518 640q-58 0 -94 -32t-44 -85q-1 -3 1 -5t5 -3l46 -8q3 -1 5.5 0.5t2.5 5.5q7 33 26.5 51t49.5 18q32 0 52 -18.5t20 -49.5q0 -19 -8 -34.5
t-27 -42.5l-49 -68q-12 -16 -17 -30t-5 -36v-30q0 -3 2 -5t6 -2h48q3 0 5 2t2 5v24q0 19 4 29.5t15 25.5l49 67q19 26 28.5 48t9.5 48q0 55 -37 90t-96 35v0zM486 210q-4 0 -6 -2t-2 -5v-63q0 -4 2 -6t6 -2h55q4 0 6 2t2 6v63q0 3 -2 5t-6 2h-55z" />
    <glyph glyph-name="uniE909" unicode="&#xe909;" 
d="M508 895q-3 -1 -6 -2.5t-5 -4.5l-489 -509q-6 -6 -6 -14.5t7 -14.5q6 -6 14.5 -6t14.5 7l64 67v-546h820v546l64 -67q6 -7 14.5 -7t14.5 6q7 6 7 14.5t-6 14.5l-489 509q-4 4 -9 6t-10 1v0zM512 845l369 -384v-548h-226v430h-286v-430h-226v548zM717 794v-62l41 -43v64
h41v-107l41 -42v190h-123zM410 302h204v-389h-204v389z" />
    <glyph glyph-name="uniE90A" unicode="&#xe90a;" 
d="M512 896q-106 0 -199 -40.5t-162.5 -110t-110 -162.5t-40.5 -199t40.5 -199t110 -162.5t162.5 -110t199 -40.5t199 40.5t162.5 110t110 162.5t40.5 199t-40.5 199t-110 162.5t-162.5 110t-199 40.5zM512 855q98 0 183.5 -37t149.5 -101t101 -149.5t37 -183.5t-37 -183.5
t-101 -149.5t-149.5 -101t-183.5 -37t-183.5 37t-149.5 101t-101 149.5t-37 183.5t37 183.5t101 149.5t149.5 101t183.5 37v0zM487 632q-3 0 -5 -2t-2 -5v-54q0 -3 2 -5.5t5 -2.5h50q3 0 5 2.5t2 5.5v54q0 3 -2 5t-5 2h-50zM486 484q-2 -1 -3.5 -3t-1.5 -4v-337q0 -4 2 -6
t5 -2h48q3 0 5 2t2 6v337q0 3 -2 5t-5 2h-48h-1.5h-0.5v0z" />
    <glyph glyph-name="uniE90B" unicode="&#xe90b;" 
d="M594 896q-17 0 -29 -12t-12 -29v-61q0 -15 10 -26.5t24 -14.5q-6 -10 -12.5 -21.5t-12.5 -25.5q-13 -29 -25 -62.5t-21 -66.5l-28 16q-4 1 -7.5 2t-6.5 0q-3 0 -6 -1.5t-5 -4.5l-27 -26q-28 24 -62.5 37.5t-73.5 13.5q-42 0 -79.5 -16t-65.5 -43.5t-45.5 -66t-19.5 -84.5
h-32q-24 0 -41 -17t-17 -41v-68q0 -24 17 -41t41 -17h3v-61q0 -4 0.5 -4t0.5 -1v-0.5v-0.5q0 -1 0.5 -1.5t0.5 -1.5t1 -3t1 -5q2 -5 3.5 -11.5t4.5 -14.5q5 -16 11.5 -37t12.5 -42q13 -42 24 -77.5l11 -35.5q0 -1 0.5 -2t0.5 -2q4 -7 8.5 -14.5t10.5 -14.5q6 -8 15.5 -13.5
t21.5 -5.5h646q12 0 22.5 5t16.5 13q7 8 10.5 16t7.5 17v0.5v0.5l11 35.5t24 77.5q6 21 12.5 42t11.5 37q2 8 4 14.5t4 11.5q0 3 1 5t1 3t0.5 1.5t0.5 1.5v0.5v0.5q0 1 0.5 1t0.5 4v61h3q24 0 41 17t17 41v68q0 24 -17 41t-41 17h-65v45q0 35 -14 89.5t-34 108.5
q-10 27 -20.5 52t-20.5 45q-2 2 -3.5 4.5t-2.5 4.5q14 3 24 14.5t10 26.5v61q0 17 -12 29t-29 12h-205zM594 855h205v-61h-205v61zM637 753h118q0 -1 1 -1.5t3 -2.5q3 -4 7.5 -10.5t9.5 -15.5q9 -17 19 -40t20 -49q19 -53 32 -107t13 -78v-45h-41v1v0l-267 151q10 34 22 69
t25 64q7 16 14.5 29.5t13.5 21.5q3 5 5.5 8t3.5 4q1 0 1 0.5v0.5v0zM300 573q30 0 57 -10t49 -28l-138 -131h-137q4 76 52.5 122.5t116.5 46.5zM480 549l256 -145h-409zM58 364h908q7 0 12 -5t5 -13v-68q0 -7 -5 -12t-12 -5h-883h-0.5h-0.5h-24q-7 0 -12 5t-5 12v68
q0 7 5 12.5t12 5.5v0zM102 220h144v-246q0 -8 6 -14t14 -6h62q8 0 14 6t6 14v246h41v-246q0 -8 6 -14t15 -6h61q8 0 14.5 6t6.5 14v246h40v-246q0 -8 6 -14t15 -6h61q9 0 15 6t6 14v246h41v-246q0 -8 6 -14t14 -6h62q8 0 14 6t6 14v246h144v-59q-1 -1 -1.5 -3t-0.5 -4
q-2 -5 -4 -12t-5 -15q-4 -16 -10.5 -36t-12.5 -42q-13 -41 -23.5 -75.5t-10.5 -35.5l-0.5 -1l-0.5 -1q-3 -7 -5.5 -12t-4.5 -7q-2 -3 -3 -3.5t-5 -0.5h-646q-1 0 -1.5 0.5l-3.5 3.5t-6.5 9t-7.5 13q0 1 -10.5 35t-23.5 75q-6 22 -12 42t-11 36q-3 8 -5 15t-4 12q0 2 -0.5 4
t-1.5 3v59zM287 220h20v-225h-20v225zM430 220h21v-225h-21v225zM573 220h21v-225h-21v225zM717 220h20v-225h-20v225z" />
    <glyph glyph-name="uniE90C" unicode="&#xe90c;" 
d="M512 855q-97 0 -183 -33.5t-150 -92t-101 -137t-37 -167.5q0 -76 27.5 -144.5t75.5 -123.5h-1q6 -10 7 -22t-2 -27q-4 -15 -11 -31t-16 -32q-9 -15 -18.5 -28.5t-18.5 -24.5q-4 -6 -7.5 -10.5t-6.5 -8.5l-2 -4l-2 -4l-3 -3t-2 -10q0 -6 3 -13.5t9 -13.5t14.5 -9t18.5 -3
q71 0 134 40t112 69q38 -13 78 -20t82 -7q97 0 183 33.5t150 92t101 137t37 167.5t-37 167.5t-101 137t-150 92t-183 33.5v0zM512 814q90 0 168 -30.5t136.5 -83.5t92 -124t33.5 -151t-33.5 -151t-92 -124t-136.5 -83.5t-168 -30.5q-42 0 -81 7t-76 20l-9 3l-7 -5
q-54 -31 -115 -69t-116 -38l4 6t5 7q8 11 18.5 26t20.5 32t19 35.5t13 38.5q5 20 3.5 40.5t-12.5 39.5l-2 1v2q-45 50 -70 112t-25 131q0 80 33.5 151t92 124t136.5 83.5t168 30.5v0zM335 650q-6 -1 -10.5 -4.5t-5.5 -9.5l-62 -179q-2 -3 -3 -5.5t-1 -6.5l-26 -75
q-3 -5 -2.5 -11t4.5 -11t9.5 -7t11.5 0q6 1 10 5.5t5 10.5l24 68h98l24 -68q1 -6 5 -10.5t10 -5.5q6 -2 11.5 0t9.5 7t4.5 11t-2.5 11l-92 266q-2 7 -8.5 11t-13.5 3v0zM338 568l35 -102h-70zM674 508q-1 -1 -1.5 -1h-1.5q-7 -2 -11.5 -7.5t-4.5 -13.5v-41h-102h-1h-1h-0.5
h-1.5q-8 0 -13.5 -6.5t-4.5 -15.5q0 -8 7 -13.5t15 -5.5h179q-7 -20 -22 -51t-46 -62q-26 25 -38.5 44l-12.5 19q-3 6 -8.5 9t-11.5 2t-10 -4t-6 -7q-3 -5 -2.5 -10t2.5 -10l13.5 -20.5t41.5 -49.5q-17 -13 -38.5 -24.5t-46.5 -20.5q-6 -1 -10.5 -5t-6.5 -10
q-1 -6 0.5 -11.5t6.5 -9.5t11 -4.5t11 1.5q32 11 57.5 25.5t45.5 31.5q18 -15 39.5 -29t47.5 -27q7 -4 15.5 -1t11.5 11q4 7 1 15.5t-10 11.5q-22 11 -40.5 22.5t-33.5 23.5q40 41 57.5 80.5t23.5 59.5h25q5 0 10 3t8 8q2 4 2 9.5t-2 10.5q-3 5 -8 8t-10 2h-103v41
q0 5 -1.5 9t-4.5 7t-7.5 4.5t-8.5 1.5v0z" />
    <glyph glyph-name="uniE90D" unicode="&#xe90d;" 
d="M0 753v-656h1024v656h-1024zM41 712h942v-574h-942v574zM123 630v-185h369v185h-369zM532 630v-185h369v185h-369zM164 589h287v-103h-287v103zM573 589h287v-103h-287v103zM123 404v-184h369v184h-369zM532 404v-184h369v184h-369zM164 364h287v-103h-287v103zM573 364
h287v-103h-287v103zM220 56q-9 -1 -14 -8t-4 -15t8 -13.5t15 -4.5h574q5 0 10 3t8 8q2 4 2 9.5t-2 10.5q-3 5 -8 7.5t-10 2.5h-574h-0.5h-1.5h-0.5h-1.5h-0.5h-0.5v0z" />
    <glyph glyph-name="uniE90E" unicode="&#xe90e;" 
d="M573 896q-41 0 -77.5 -15.5t-64 -42t-44 -62.5t-18.5 -77l-102 -47l-238 119q-2 2 -5 2h-6q-8 -1 -13 -7t-5 -13v-738q0 -6 3 -11t9 -7l245 -123q5 -2 9.5 -2t8.5 2l238 119l257 -119q4 -2 9 -2t9 3l225 122q5 3 8 8t3 10v738q0 5 -2.5 9.5t-7.5 7.5t-10 3t-10 -2
l-219 -119q1 10 2 19.5t1 19.5q0 43 -16 80t-44 65t-65 44t-80 16zM573 855q68 0 116 -48t48 -116q0 -57 -27.5 -123.5t-61.5 -122.5q-28 -47 -47 -72t-28 -36q-8 11 -27 35.5t-47 70.5q-33 53 -59.5 116t-29.5 120q2 4 1.5 8t-1.5 8q1 67 48.5 113.5t114.5 46.5zM573 773
q-42 0 -72 -30t-30 -72q0 -43 30 -73t72 -30q43 0 73 30t30 73q0 42 -30 72t-73 30zM573 732q26 0 44 -18t18 -43q0 -26 -18 -44t-44 -18q-25 0 -43 18t-18 44q0 25 18 43t43 18zM41 719l216 -108q4 -2 8.5 -2t9.5 2l96 44q7 -62 34.5 -122.5t58.5 -110.5q35 -58 64.5 -95.5
l29.5 -37.5q3 -4 7 -5.5t9 -1.5q4 0 8.5 2t6.5 5l29.5 38t64.5 97q25 41 48 89t36 98l9 -2q3 0 6 0.5t6 2.5l195 106v-690l-205 -112l-258 118q-4 2 -8.5 2t-8.5 -2l-237 -118l-225 112v691z" />
    <glyph glyph-name="uniE90F" unicode="&#xe90f;" 
d="M0 753v-738h1024v738h-1024zM41 712h942v-52q-3 -2 -61 -53t-129.5 -113t-134.5 -117t-76 -66l-2 -2q-19 -17 -38 -22t-30 -5t-30 5t-38 22q-6 5 -39.5 34t-62.5 54q-44 39 -95.5 84t-96.5 84.5t-76 66t-33 28.5v52zM41 606q13 -12 41.5 -36.5t65.5 -57t79.5 -69
t82.5 -71.5l-269 -213v447zM983 606v-447l-269 213q40 35 82.5 71.5t79.5 69t65.5 57t41.5 36.5zM341 344q19 -16 45 -39t31 -27v0q26 -23 52 -30t43 -7q18 0 43.5 7.5t51.5 29.5q5 4 31.5 27t45.5 39l299 -236v-52h-942v52z" />
    <glyph glyph-name="uniE910" unicode="&#xe910;" 
d="M512 835q-93 0 -175 -35.5t-143.5 -97t-97 -143.5t-35.5 -175t35.5 -175t97 -143.5t143.5 -97t175 -35.5t175 35.5t143.5 97t97 143.5t35.5 175t-35.5 175t-97 143.5t-143.5 97t-175 35.5v0zM512 794q85 0 159.5 -32.5t130 -88t88 -130t32.5 -159.5t-32.5 -159.5
t-88 -130t-130 -88t-159.5 -32.5t-159.5 32.5t-130 88t-88 130t-32.5 159.5t32.5 159.5t88 130t130 88t159.5 32.5zM287 404v-40h450v40h-450z" />
    <glyph glyph-name="uniE911" unicode="&#xe911;" 
d="M512 896q-34 0 -58 -24t-24 -58q0 -8 1.5 -15.5t4.5 -14.5q-43 -11 -78.5 -35t-60 -57t-38 -75t-13.5 -90q0 -120 -24.5 -181.5t-52.5 -92.5q-14 -16 -27.5 -26t-25.5 -19q-6 -4 -11.5 -9t-10.5 -10q-5 -6 -8.5 -13.5t-3.5 -16.5q0 -21 11.5 -38.5t30.5 -29.5
q18 -12 41.5 -20t52.5 -14q38 -8 83.5 -12.5t95.5 -6.5q-3 -10 -5.5 -21t-2.5 -22q0 -51 36 -87t87 -36t87 36t36 87q0 11 -2.5 22t-5.5 21q50 2 95.5 6.5t83.5 12.5q29 6 52.5 14t41.5 20q19 12 30.5 29.5t11.5 38.5q0 9 -3.5 16.5t-8.5 13.5q-5 5 -10.5 10t-11.5 9
q-12 9 -25.5 19t-27.5 26q-28 31 -52.5 92.5t-24.5 181.5q0 48 -13.5 89.5t-38.5 75t-60 57.5t-78 35q3 7 4.5 14.5t1.5 15.5q0 34 -24 58t-58 24v0zM512 855q17 0 29 -12t12 -29t-12 -29t-29 -12t-29 12t-12 29t12 29t29 12zM560 749q82 -15 129.5 -74t47.5 -148
q0 -125 27 -195t60 -107q17 -18 33 -30t27 -20q5 -4 9 -7.5t6 -5.5t2 -2.5v-0.5q0 -10 -5 -17.5t-18 -16.5q-13 -8 -33.5 -15.5t-47.5 -12.5q-53 -11 -127 -15.5t-158 -4.5t-158 4.5t-127 15.5q-27 5 -47.5 12.5t-33.5 15.5q-13 9 -18 16.5t-5 17.5v0.5t2 2.5t6 5.5t9 7.5
q11 8 27 20t33 30q33 37 60 107t27 195q0 88 47.5 147.5t129.5 73.5q10 -7 22 -11.5t26 -4.5t26 4.5t22 12.5zM442 37q17 0 34.5 -0.5t35.5 -0.5t35.5 0.5t34.5 0.5q6 -9 9 -20t3 -22q0 -34 -24 -58t-58 -24t-58 24t-24 58q0 12 3 22.5t9 19.5v0z" />
    <glyph glyph-name="uniE912" unicode="&#xe912;" 
d="M61 814q-25 0 -43 -18t-18 -43v-756q-1 -4 -0.5 -7.5t1.5 -6.5q5 -21 21.5 -35.5t38.5 -14.5h799q23 0 40 15.5t20 37.5q0 1 0.5 2t0.5 2v0.5v0.5l1 3v0.5v0.5l101 549l1 2v2q0 25 -18 43t-43 18v62q0 25 -18.5 43t-43.5 18h-532v0v0q-1 1 -2.5 2t-3.5 4q-4 4 -8.5 11
t-8.5 15q-5 7 -10.5 15t-11.5 15q-7 7 -16 13.5t-21 6.5h-226zM61 773h226q-1 0 0.5 -0.5t5.5 -5.5q4 -4 8.5 -11t8.5 -14q5 -8 10.5 -16t11.5 -15t15 -13.5t22 -6.5h532q9 0 15 -6t6 -14v-62h-758q-24 0 -41.5 -17t-18.5 -40h-1l-1 -4l-61 -332v537q0 8 6 14t14 6v0z
M164 568h799q8 0 14 -6t6 -14l-100 -544l-1 -1l-0.5 -1l-0.5 -1v-1.5v-1.5v-0.5v-0.5v-0.5v-0.5q-1 -1 -1 -1.5v-1.5v-1v-1v-1.5v-1.5q-2 -6 -7.5 -10t-12.5 -4h-799q-8 0 -14 6t-6 15l102 549v2v2q0 8 6 14t15 6v0z" />
    <glyph glyph-name="uniE913" unicode="&#xe913;" 
d="M508 855q-4 0 -7 -1.5t-6 -4.5l-258 -260h-196q-8 0 -16 -3t-13 -9q-6 -6 -9 -13.5t-3 -15.5v-82q0 -8 3 -16t9 -14q5 -5 13 -8t16 -3h3l110 -366l0.5 -0.5l0.5 -0.5q6 -18 21.5 -30.5t36.5 -12.5h594q20 0 36.5 12t21.5 31v0.5v0.5l1 1l114 365h3q8 0 16 3t13 8
q6 6 9 14t3 16v82q0 8 -3 15.5t-9 13.5q-5 6 -13 9t-16 3h-196l-263 260q-3 4 -7.5 5.5t-8.5 0.5v0zM510 805l218 -216h-432zM41 548h735h2.5h2.5h202v-82h-19q-6 0 -11.5 -4t-7.5 -10l-119 -382v0v0q-1 -5 -6.5 -9.5t-12.5 -4.5h-594q-7 0 -11.5 4.5t-7.5 11.5h-1l-114 379
q-2 7 -7.5 11t-11.5 4h-19v82zM676 433l-15 -14l-190 -190l-88 88l-14 14l-29 -29l14 -15l102 -102l15 -14l15 14l205 205l14 14z" />
    <glyph glyph-name="uniE914" unicode="&#xe914;" 
d="M0 814v-860h1024v860h-1024zM41 773h942v-778h-942v778zM82 732v-466v-4.5v-4.5v-221h860v99v4v4v589h-860zM123 691h778v-503l-190 190q-3 4 -7.5 5.5t-9.5 0.5q-4 0 -7 -1.5t-5 -4.5l-87 -87l-211 230q-4 4 -8.5 5.5t-10.5 0.5q-3 0 -5.5 -1.5t-4.5 -3.5l-232 -214v383
zM717 589q-26 0 -44 -18t-18 -44q0 -25 18 -43t44 -18q25 0 43 18t18 43q0 26 -18 44t-43 18zM367 477l198 -215l-47 -48q-6 -6 -6 -14.5t6 -14.5t14.5 -6t14.5 6l58 59q3 1 4.5 3t2.5 4l84 83l205 -205v-52h-778v175z" />
    <glyph glyph-name="uniE915" unicode="&#xe915;" 
d="M512 835q-93 0 -175 -35.5t-143.5 -97t-97 -143.5t-35.5 -175t35.5 -175t97 -143.5t143.5 -97t175 -35.5t175 35.5t143.5 97t97 143.5t35.5 175t-35.5 175t-97 143.5t-143.5 97t-175 35.5v0zM512 794q85 0 159.5 -32.5t130 -88t88 -130t32.5 -159.5t-32.5 -159.5
t-88 -130t-130 -88t-159.5 -32.5t-159.5 32.5t-130 88t-88 130t-32.5 159.5t32.5 159.5t88 130t130 88t159.5 32.5zM492 609v-205h-205v-40h205v-205h40v205h205v40h-205v205h-40z" />
    <glyph glyph-name="uniE916" unicode="&#xe916;" 
d="M586 855q-5 0 -10.5 -0.5t-10.5 -0.5q-10 -2 -21.5 -6t-19.5 -13l-466 -465q-17 -17 -17 -42t17 -42l356 -356q17 -17 42 -17t42 17l465 466q9 8 13 19.5t6 21.5q1 11 1 21.5v20.5v304q0 30 -21 51t-51 21h-304h-10.5h-10.5v0zM587 814h9h11h304q13 0 22 -9t9 -22v-304
v-20.5t-1 -16.5t-2.5 -11t-4.5 -6l-465 -466q-5 -5 -13 -5t-13 5l-3 3l-353 353q-5 5 -5 13t5 13l466 465q2 3 6.5 4.5t11.5 2.5q3 0 7 0.5t9 0.5v0zM799 753q-34 0 -58 -24t-24 -58t24 -58t58 -24q33 0 57.5 24t24.5 58t-24 58t-58 24zM799 712q17 0 29 -12t12 -29t-12 -29
t-29 -12t-29 12t-12 29t12 29t29 12zM567 516q-23 0 -47 -8.5t-49 -25.5l-19 18l-29 -12l25 -24q-1 -1 -2.5 -2t-3.5 -2l-6 -6q0 -1 -1 -2l-2 -2l-1.5 -1.5l-1.5 -1.5l-15 15l-30 -11l26 -27q-42 -56 -42.5 -104.5t41.5 -89.5q14 -15 31 -24t35 -13l35 35q-13 0 -23.5 1.5
t-17.5 4.5q-9 3 -18 8t-17 13q-26 27 -24 61t33 76l73 -73l30 11l-84 84q0 1 1 2l2 2t1.5 2t1.5 2t2.5 2t2.5 3q2 1 3 2t3 2l89 -88l29 12l-95 95q17 11 33 17.5t31 8.5q19 3 35 -2.5t28 -17.5q13 -13 19 -30.5t6 -40.5l44 12q-5 26 -14.5 46.5t-25.5 35.5q-20 20 -43 29
t-49 8v0z" />
    <glyph glyph-name="uniE917" unicode="&#xe917;" 
d="M365 896q-35 0 -59.5 -3.5t-40.5 -7.5q-7 -2 -13 -4t-9 -4q-4 -2 -7 -4l-3 -2l-6 -5l-2 -8l-3 -27.5t-7 -68t-7 -87.5t-3 -86q0 -48 19 -77.5t39 -46.5q11 -8 20 -15t15 -12t7.5 -7.5t1.5 -5.5q0 -15 -3 -53.5t-7 -86.5q-4 -47 -7 -97t-3 -91q0 -73 5 -115.5t15 -66.5
q5 -13 12.5 -21.5t16.5 -13.5q8 -5 17 -6.5t16 -1.5q6 0 15 1t18 7q8 5 15.5 13.5t12.5 21.5q10 24 15.5 66.5t5.5 115.5q0 41 -3.5 91t-7.5 97q-4 48 -7 86.5t-3 53.5q0 3 1.5 5.5t7.5 7.5t15 11.5t20 14.5q21 17 39.5 47t18.5 78q0 27 -3 72t-7 88.5t-7 75.5l-3 32l-1 10
l-9 6l-8.5 4t-25.5 8q-16 4 -41.5 7.5t-61.5 3.5v0zM635 896q-4 0 -8 -1.5t-7 -4.5q-2 -3 -4 -6.5t-2 -7.5v-226q0 -5 0.5 -35t1 -67.5t0.5 -73.5v-52q0 -14 -3.5 -65.5t-7.5 -112.5q-4 -60 -7.5 -118t-3.5 -90q0 -47 2 -76t8 -48q3 -9 8 -17t12 -13q8 -6 16 -7.5t15 -1.5v0
v0q17 0 37 12t34 39q15 28 23.5 74.5t8.5 119.5q0 41 -7 73.5t-15 57.5t-13.5 43t-5.5 31q0 21 14.5 51.5t34.5 66.5t37.5 77.5t17.5 89.5v0v0q0 27 -6 65t-25 79t-54.5 79.5t-92.5 62.5q-2 1 -4 1.5t-4 0.5zM365 855h12.5t11.5 -1v-204q0 -5 2.5 -10t7.5 -8t10.5 -3t10.5 3
t7.5 8t2.5 10v201q8 -2 15.5 -3t12.5 -3l10 -2.5t4 -1.5q1 -7 4 -38.5t6.5 -71.5t6.5 -80t3 -62q0 -39 -13.5 -58.5t-30.5 -34.5q-9 -7 -18 -13.5t-18 -13.5q-8 -8 -15.5 -19t-7.5 -25q0 -19 3.5 -57.5t6.5 -85.5q4 -47 7.5 -96.5t3.5 -88.5q0 -71 -5.5 -110.5t-12.5 -55.5
q-3 -9 -6 -12t-5 -4t-4.5 -1.5t-7.5 -0.5v0q-5 0 -8 0.5t-5 1.5t-5 4.5t-6 11.5q-7 16 -12 55.5t-5 110.5q0 39 3 88.5t7 96.5t7 85.5t3 57.5q0 14 -7 25t-16 19q-8 7 -17.5 13.5t-17.5 14.5q-18 14 -31 34t-13 58q0 35 2.5 76.5t6 78.5t6.5 64t4 33q2 1 4.5 2t6.5 3
q6 1 13.5 2.5l17.5 3.5v-202q0 -5 3 -10t7 -8q5 -3 10.5 -3t10.5 3t7.5 8t2.5 10v205h8.5h8.5v0zM655 837q35 -21 59.5 -47t38.5 -55q16 -35 21.5 -69.5t5.5 -57.5q0 -39 -15 -76t-35 -72q-19 -35 -36.5 -68.5t-17.5 -68.5q0 -22 7 -42.5t14 -44.5q8 -23 14 -52t6 -66
q0 -71 -8.5 -113t-18.5 -62q-11 -20 -19.5 -24.5t-15.5 -4.5q-4 0 -5.5 0.5l-1.5 0.5q-1 0 -2 2t-3 8q-4 11 -6 38t-2 73q0 29 3.5 87t7.5 118q4 61 7.5 111.5t3.5 69.5v53t-0.5 74t-1 67.5t-0.5 33.5v187z" />
    <glyph glyph-name="uniE918" unicode="&#xe918;" 
d="M447 691q-9 -1 -14.5 -7.5t-4.5 -14.5q1 -9 7.5 -14.5t15.5 -4.5h41v-20h40v20h41q6 0 11 3t7 7q3 5 3 10.5t-3 10.5q-2 5 -7 7.5t-11 2.5h-122h-1.5h-0.5h-1.5h-0.5v0zM512 609q-93 0 -175 -35.5t-143.5 -96.5t-97 -143t-35.5 -175h-20q-17 0 -29 -12t-12 -29v-82
q0 -17 12 -29t29 -12h942q17 0 29 12t12 29v82q0 17 -12 29t-29 12h-20q0 93 -35.5 175t-97 143t-143.5 96.5t-175 35.5v0zM512 568q85 0 159.5 -32t130 -87.5t88 -130t32.5 -159.5h-820q0 85 32.5 159.5t88 130t130 87.5t159.5 32v0zM41 118h942v-82h-942v82z" />
    <glyph glyph-name="uniE919" unicode="&#xe919;" 
d="M432 896l-3 -17l-21 -135q-20 -5 -39.5 -12.5t-37.5 -17.5l-111 78l-14 11l-111 -112l10 -14l77 -111q-10 -18 -17.5 -37.5t-13.5 -39.5l-134 -22l-17 -3v-157l17 -4l133 -23q6 -21 14 -40t18 -37l-78 -111l-11 -14l112 -111l14 10l111 78q18 -10 37.5 -17.5t39.5 -13.5
l22 -135l3 -17h157l4 17l23 134q21 6 39.5 14.5t36.5 18.5l113 -79l14 -10l112 111l-11 15l-80 111q10 17 18 36.5t14 39.5l135 23l17 4v157l-17 3l-135 21q-5 20 -13.5 39t-18.5 37l79 113l10 14l-111 112l-15 -11l-110 -79q-18 10 -37 17.5t-40 13.5l-23 135l-4 17h-157z
M467 855h89l22 -129l2 -12l13 -4q25 -6 48 -15.5t44 -22.5l11 -7l11 8l106 76l63 -62l-75 -108l-8 -11l6 -11q13 -21 22.5 -44t15.5 -48l4 -13l13 -2l129 -21v-89l-129 -22l-14 -2l-3 -13q-6 -25 -15.5 -48t-22.5 -44l-6 -11l8 -11l76 -106l-62 -63l-119 83l-11 -7
q-21 -13 -44 -22.5t-48 -15.5l-13 -4l-2 -12l-22 -129h-89l-22 128l-1 13l-14 4q-25 6 -48 15.5t-44 21.5l-11 7l-11 -7l-107 -75l-62 63l75 105l8 11l-7 12q-13 21 -23 44t-16 48l-3 13l-13 2l-127 22v89l127 21l14 2l3 13q6 25 16 48.5t22 44.5l7 12l-7 10l-75 107l63 62
l105 -75l11 -8l12 7q21 12 44 21.5t48 15.5l13 4l2 13zM512 568q-76 0 -130 -54t-54 -130t54 -130t130 -54t130 54t54 130t-54 130t-130 54v0zM512 527q60 0 101.5 -41.5t41.5 -101.5t-41.5 -101.5t-101.5 -41.5t-101.5 41.5t-41.5 101.5t41.5 101.5t101.5 41.5z" />
    <glyph glyph-name="uniE91A" unicode="&#xe91a;" 
d="M512 876q-43 0 -80 -16.5t-65 -44t-44 -65t-16 -79.5v-41h-162l-2 -18l-82 -717l-2 -23h906l-2 23l-82 717l-2 18h-162v41q0 42 -16 79.5t-44 65t-65 44t-80 16.5v0zM512 835q69 0 116.5 -48t47.5 -116v-41h-328v41q0 68 47.5 116t116.5 48zM182 589h125v-47
q-9 -5 -14.5 -14.5t-5.5 -20.5q0 -17 12 -29t29 -12t29 12t12 29q0 11 -6 20.5t-15 14.5v47h328v-47q-9 -5 -15 -14.5t-6 -20.5q0 -17 12 -29t29 -12t29 12t12 29q0 11 -5.5 20.5t-14.5 14.5v47h125l77 -676h-814z" />
    <glyph glyph-name="uniE91B" unicode="&#xe91b;" 
d="M79 835q-11 0 -22 -4.5t-19 -13.5q-17 -17 -17 -41t17 -41l167 -167h-164q-17 0 -29 -12t-12 -29v-123q0 -16 12 -28t29 -12h10l109 -380q5 -16 17.5 -23t27.5 -7h614q15 0 27.5 7t17.5 23l109 380h10q17 0 29 12t12 28v123q0 17 -12 29t-29 12h-164l167 167q17 17 17 41
t-17 41q-8 9 -19 13.5t-22 4.5t-21.5 -4.5t-19.5 -13.5l-249 -249h-286l-249 249q-9 9 -19.5 13.5t-21.5 4.5v0zM78 794q3 0 6.5 -1.5t5.5 -4.5l274 -273q5 -5 5 -11.5t-5 -11.5q-3 -3 -6 -4.5t-6 -1.5t-6.5 1.5t-5.5 4.5l-273 273q-6 5 -6 11.5t6 11.5q2 3 5 4.5t6 1.5z
M946 794q3 0 6 -1.5t5 -4.5q6 -5 6 -11.5t-6 -11.5l-273 -273q-2 -3 -5.5 -4.5t-6.5 -1.5t-6 1.5t-6 4.5q-5 5 -5 11.5t5 11.5l274 273q2 3 5.5 4.5t6.5 1.5v0zM41 527h205l64 -64q1 0 1 -0.5v-0.5q8 -8 19 -12.5t22 -4.5t22 4.5t19 13.5q13 13 16 30.5t-5 33.5h216
q-8 -16 -5 -33.5t16 -30.5q8 -9 19 -13.5t22 -4.5t22 4.5t19 12.5v0.5t1 0.5l64 64h205v-123h-942v123zM93 364h237q-13 -8 -20 -21t-7 -28v-227q0 -24 17 -41.5t41 -17.5t41 17.5t17 41.5v227q0 15 -7.5 28t-19.5 21h89q-12 -8 -19.5 -21t-7.5 -28v-227q0 -24 17 -41.5
t41 -17.5t41 17.5t17 41.5v227q0 15 -7.5 28t-19.5 21h89q-12 -8 -19.5 -21t-7.5 -28v-227q0 -24 17 -41.5t41 -17.5t41 17.5t17 41.5v227q0 15 -7 28t-20 21h237l-107 -369q1 4 -0.5 2t-4.5 -2h-614q-3 0 -4.5 2t-0.5 -2zM361 332q7 0 12 -5t5 -12v-227q0 -8 -5 -13t-12 -5
t-12 5t-5 13v227q0 7 5 12t12 5v0zM512 332q7 0 12 -5t5 -12v-227q0 -8 -5 -13t-12 -5t-12 5t-5 13v227q0 7 5 12t12 5v0zM663 332q7 0 12 -5t5 -12v-227q0 -8 -5 -13t-12 -5t-12 5t-5 13v227q0 7 5 12t12 5v0z" />
    <glyph glyph-name="uniE91C" unicode="&#xe91c;" 
d="M37 855h-0.5t-1.5 -1q-15 -2 -25 -13t-10 -27q0 -17 12 -29t29 -12t29 12t12 29h95q19 0 30.5 -3.5t18.5 -10.5t13 -18t11 -28l164 -661q5 -18 11 -35.5t19 -31.5q5 -7 11.5 -11.5t14.5 -8.5q-9 -11 -14 -24t-5 -28q0 -34 24 -58t57 -24q34 0 58 24t24 58q0 11 -3 21.5
t-8 19.5h125q-5 -9 -8 -19.5t-3 -21.5q0 -34 24 -58t58 -24q33 0 57.5 24t24.5 58q0 16 -6 29.5t-16 24.5q2 5 1 10t-4 9q-2 4 -6.5 6.5t-9.5 2.5h-313q-24 0 -35.5 4.5t-17.5 11.5q-7 8 -11.5 20.5t-8.5 29.5v1l-14 56h375q7 0 12 3.5t8 9.5l147 389q2 5 1 10t-4 9
q-2 4 -6.5 6.5t-9.5 2.5h-50h-1v0l-173 174q-4 3 -8 5t-9 1q-4 0 -7 -2t-5 -4l-67 -68l-68 68q-3 3 -7.5 5t-9.5 1q-3 0 -6.5 -2t-5.5 -4l-174 -174v0v0h-39l-43 175v0v1q-6 20 -14.5 36.5t-22.5 29.5q-13 12 -32.5 18t-43.5 6h-136h-1h-1h-0.5h-1.5v0zM561 719l60 -60
q2 -5 5 -8.5t8 -4.5l0.5 -0.5t1.5 -0.5l55 -56h-262zM724 719l131 -130h-106h-0.5h-0.5l-77 77zM344 548h589l-132 -348h-371zM532 -5q18 0 29.5 -12t11.5 -29t-11.5 -29t-29.5 -12q-17 0 -28.5 12t-11.5 29t11.5 29t28.5 12zM799 -5q17 0 29 -12t12 -29t-12 -29t-29 -12
t-29 12t-12 29t12 29t29 12z" />
    <glyph glyph-name="uniE91D" unicode="&#xe91d;" 
d="M37 855h-0.5t-1.5 -1q-15 -2 -25 -13t-10 -27q0 -17 12 -29t29 -12t29 12t12 29h95q19 0 30.5 -3.5t18.5 -10.5t13 -18t11 -28l164 -661q5 -18 11 -35.5t19 -31.5q5 -7 11.5 -11.5t14.5 -8.5q-9 -11 -14 -24t-5 -28q0 -34 24 -58t57 -24q34 0 58 24t24 58q0 11 -3 21.5
t-8 19.5h125q-5 -9 -8 -19.5t-3 -21.5q0 -34 24 -58t58 -24q33 0 57.5 24t24.5 58q0 16 -6 29.5t-16 24.5q2 5 1 10t-4 9q-2 4 -6.5 6.5t-9.5 2.5h-313q-24 0 -35.5 4.5t-17.5 11.5q-7 8 -11.5 20.5t-8.5 29.5v1l-14 56h375q7 0 12 3.5t8 9.5l147 389q2 5 1 10t-4 9
q-2 4 -6.5 6.5t-9.5 2.5h-630l-43 175v0v1q-6 20 -14.5 36.5t-22.5 29.5q-13 12 -32.5 18t-43.5 6h-136h-1h-1h-0.5h-1.5v0zM344 548h589l-132 -348h-371zM532 -5q18 0 29.5 -12t11.5 -29t-11.5 -29t-29.5 -12q-17 0 -28.5 12t-11.5 29t11.5 29t28.5 12zM799 -5q17 0 29 -12
t12 -29t-12 -29t-29 -12t-29 12t-12 29t12 29t29 12z" />
    <glyph glyph-name="uniE91E" unicode="&#xe91e;" 
d="M502 876q-21 0 -36 -15.5t-15 -36.5v-51h-246h-1.5h-0.5q-8 -1 -13.5 -6.5t-5.5 -13.5v-246q0 -9 6 -15t15 -6h246v-61h-328h-1.5h-0.5q-4 0 -8 -2t-6 -6l-103 -123q-4 -5 -4 -12.5t4 -12.5l103 -123q3 -4 7 -6t9 -2h328v-266h41v266h20v-266h41v266h266q9 0 15 6t6 15
v245q0 9 -6 15t-15 6h-266v61h348q5 0 9 2t7 6l103 123q4 6 4 13t-4 13l-103 122q-3 4 -7 6t-9 2h-348v51q0 21 -15 36.5t-36 15.5v0zM502 835q4 0 7 -3t3 -8v-51h-20v51q0 5 2.5 8t7.5 3v0zM225 732h667l85 -102l-85 -103h-667v205zM492 486h20v-61h-20v61zM132 384h667
v-205h-667l-85 103z" />
    <glyph glyph-name="uniE91F" unicode="&#xe91f;" 
d="M82 876q-34 0 -58 -24.5t-24 -57.5v-779q0 -33 24 -57.5t58 -24.5h430v41h-430q-17 0 -29 12t-12 29v779q0 17 12 29t29 12h573q18 0 29.5 -12t11.5 -29v-185h41v185q0 33 -24 57.5t-58 24.5h-573zM99 794q-8 -2 -12.5 -7.5t-4.5 -13.5v-676q0 -8 6 -14t14 -6h410v41
h-389v635h491v-144h41v164q0 9 -6 15t-14 6h-533h-0.5h-1.5h-0.5h-0.5v0zM594 589q-25 0 -43.5 -18t-18.5 -44v-594q0 -25 18.5 -43t43.5 -18h369q25 0 43 18t18 43v594q0 26 -18 44t-43 18h-369zM594 548h369q8 0 14 -6t6 -15v-594q0 -8 -6 -14t-14 -6h-369q-9 0 -15 6
t-6 14v594q0 9 6 15t15 6v0zM631 507q-7 -1 -12 -7t-5 -14v-450q0 -9 6 -15t15 -6h287q8 0 14 6t6 15v450q0 9 -6 15t-14 6h-287h-1.5h-0.5h-1h-1v0zM655 466h246v-410h-246v410zM369 56q-13 0 -22 -9t-9 -21q0 -13 9 -22t22 -9q12 0 21 9t9 22q0 12 -9 21t-21 9zM778 -5
q-12 0 -21 -9t-9 -22t9 -22t21 -9q13 0 22 9t9 22t-9 22t-22 9z" />
    <glyph glyph-name="uniE920" unicode="&#xe920;" 
d="M861 116l-19.5 -50.5t-103.5 -50.5q-56 0 -104 25.5t-48 77.5q0 54 36.5 65t80 14t80 15.5t36.5 69.5v352l-3.5 11t-10.5 20q-7 10 -14 11.5l-7 1.5q-37 -1 -87 -7.5t-104.5 -19.5t-109 -32t-100.5 -47q-19 -10 -27 -35l-8 -25v-497q0 -48 -41.5 -74.5t-91.5 -28.5
t-91.5 23t-41.5 80q0 52 38.5 63.5t84.5 15t84.5 16.5t38.5 69q0 132 -0.5 216.5t-1 137.5t-0.5 83v53q1 13 13 46t43 55q14 10 82 24t146.5 27.5t146.5 22.5t82 9q11 -1 16 -13.5l5 -12.5q1 -32 1 -147t0.5 -240t0 -224.5l-0.5 -99.5v0zM901 129v83v198v237v201
q0 12 -12 23.5t-27 16.5q-20 7 -71.5 -1.5t-70.5 -11.5q-55 -9 -109.5 -18t-104 -19t-89.5 -21.5t-65 -26.5q-19 -12 -35 -37.5t-21 -51.5q-3 -12 -4.5 -92t-2.5 -172.5t-1.5 -171t-0.5 -86.5q0 -35 -38.5 -39.5t-84.5 -9.5t-84.5 -26t-38.5 -89q0 -76 54.5 -111t119.5 -33
t119.5 39t54.5 105v484l5.5 15.5t15.5 23.5q17 16 60 31.5t95.5 28.5t108 23t98.5 15l6 -15v-339q0 -35 -35 -39t-77.5 -9t-77.5 -26t-35 -90q0 -80 64.5 -112t122.5 -32q60 0 92.5 24.5t48 53.5t18 53l2.5 24v0z" />
    <glyph glyph-name="uniE921" unicode="&#xe921;" 
d="M818 -60l-306 197l-306 -197l94 351l-282 230l363 20l131 339l131 -339l363 -20l-282 -230z" />
    <glyph glyph-name="uniE922" unicode="&#xe922;" 
d="M512 880l-19 -49l-112 -290l-311 -17l-53 -3l42 -33l241 -197l-80 -300l-13 -51l44 29l261 169l305 -198l-13 51l-80 300l241 197l42 33l-53 3l-311 17l-112 290zM512 766l97 -253l5 -12l14 -1l271 -14l-221 -179l3 -13l69 -261l-238 153l-11 -7l-227 -146l69 261l3 13
l-221 179l285 15l5 12z" />
    <glyph glyph-name="uniE923" unicode="&#xe923;" 
d="M344 896q-7 -1 -11.5 -7t-4.5 -13v-21h-166q-25 0 -42.5 -17.5t-17.5 -41.5v-863q0 -25 17.5 -43t42.5 -18h698q25 0 42.5 18t17.5 42v862v0.5v1.5q1 24 -16.5 41.5t-41.5 17.5h-166v21q0 8 -6 14t-14 6h-328h-0.5h-1.5h-0.5h-1.5zM369 855h286v-123h-286v123zM162 814
h166v-41h-144v-819h656v819h-144v41h166q6 0 11.5 -5.5t5.5 -11.5v-0.5v-0.5v-864q0 -8 -5 -13.5t-14 -5.5h-698q-6 0 -12.5 6t-6.5 14v863q0 6 6.5 12t12.5 6v0zM225 732h103v-20q0 -9 6 -15t14 -6h328q8 0 14 6t6 15v20h103v-737h-574v737zM307 548v-164h164v164h-164z
M348 507h82v-82h-82v82zM532 486v-41h185v41h-185zM307 282v-164h164v164h-164zM348 241h82v-82h-82v82zM369 220v-41h41v41h-41zM532 220v-41h185v41h-185z" />
    <glyph glyph-name="uniE924" unicode="&#xe924;" 
d="M451 650q-26 0 -44 -18t-18 -44v-26q-8 -1 -15 -2t-12 -2q-22 -4 -31.5 -7.5t-11.5 -3.5l-1 -0.5l-1 -0.5q-23 -8 -52.5 -21.5t-45.5 -44.5v-1q-4 -7 -10 -22t-14 -37q-7 -16 -14.5 -36.5t-15.5 -40.5h-61q-22 0 -39 -7t-27 -19q-10 -11 -14 -24t-4 -24t6 -22t16 -17
q9 -6 20 -8t22 -2h34q-3 -6 -8.5 -21.5l-5.5 -15.5l-2 -4v-246q0 -25 18.5 -43t43.5 -18h82q25 0 43 18t18 43v21h410v-21q0 -25 18 -43t43 -18h82q25 0 43.5 18t18.5 43v246l-2 4l-5.5 15.5t-8.5 21.5h34q11 0 22 2t20 8q10 6 16 17t6 22t-4 24t-14 24q-10 12 -27 19t-39 7
h-61l-2 4t-1 4q-17 43 -31.5 79.5t-20.5 49.5q-14 33 -45 46.5t-52 19.5l-1 0.5t-2 0.5v0q-1 0 -11 3.5t-31 7.5q-5 1 -12 2t-15 2v26q0 26 -18 44t-44 18h-122zM451 609h122q9 0 15 -6t6 -15v-22q-17 1 -37.5 1.5t-44.5 0.5t-44.5 -0.5t-37.5 -1.5v22q0 9 6 15t15 6v0z
M512 527q53 0 88 -3t55 -7q21 -4 27.5 -6l6.5 -2l2 -1h1q19 -6 43.5 -17.5t31.5 -27.5q4 -10 19 -48.5t31 -79.5q4 -9 8.5 -23t2.5 -24q-1 -5 -3.5 -9t-9.5 -8t-21 -7t-36 -3h-492q-22 0 -36 3t-21 7t-9.5 8t-3.5 9q-2 10 2.5 24t8.5 23l-2 1q7 18 14 36.5t13 33.5
q9 21 15.5 36.5t7.5 18.5q9 16 32 27.5t45 19.5h1l2 1l6.5 2t27.5 6q20 4 55 7t88 3v0zM104 302h44q-5 -15 -7.5 -21.5l-7.5 -19.5h-49q-9 0 -14 1t-7 2q-1 1 -1.5 1t-0.5 4q0 6 2 11.5t5 10.5q4 4 12 7.5t24 3.5v0zM874 302h46q16 0 24 -3.5t12 -7.5q3 -5 5 -10.5t2 -11.5
q0 -4 -0.5 -4t-1.5 -1q-2 -1 -7 -2t-14 -1h-50l-7.5 19.5t-8.5 21.5v0zM173 249q3 -4 7.5 -7.5t8.5 -5.5q14 -8 33 -12t44 -4h492q25 0 44 4t33 12q4 2 8.5 5.5t7.5 7.5q9 -24 19 -50t11 -27v-160q0 -7 -5.5 -12t-13.5 -5h-700q-8 0 -13.5 5t-5.5 12v160q1 1 11 27.5
t19 49.5v0zM225 200q-25 0 -43 -18.5t-18 -43.5q0 -13 5 -25t13 -20q8 -9 17 -15t18 -11q13 -7 23 -13t20 -10t21.5 -6t25.5 -2q34 0 58 24t24 58t-24 58t-58 24h-82zM717 200q-34 0 -58 -24t-24 -58t24 -58t58 -24q14 0 25.5 2t21.5 6t20 10t23 13q9 5 18 11t17 15
q8 8 13 20t5 25q0 25 -18 43.5t-43 18.5h-82zM225 159h82q17 0 29 -12t12 -29t-12 -29t-29 -12q-11 0 -18 1t-14 4t-16 8t-22 13q-9 5 -15 9.5t-10 8.5t-5.5 7.5t-1.5 9.5q0 9 6 15t14 6v0zM717 159h82q8 0 14 -6t6 -15q0 -6 -1.5 -9.5t-5.5 -7.5t-10 -8.5t-15 -9.5
q-13 -8 -22 -13t-16 -8t-14 -4t-18 -1q-17 0 -29 12t-12 29t12 29t29 12v0zM143 -43q5 -1 9.5 -2t9.5 -1h104v-21q0 -8 -6 -14t-14 -6h-82q-9 0 -15 6t-6 14v24zM881 -43v-24q0 -8 -6 -14t-15 -6h-82q-8 0 -14 6t-6 14v21h104q5 0 9.5 1t9.5 2v0z" />
    <glyph glyph-name="uniE925" unicode="&#xe925;" 
d="M492 814q-19 0 -35.5 -10.5t-27.5 -28.5q-1 -1 -1.5 -1t-0.5 -1l-229 -313q-17 -25 -25.5 -52.5t-8.5 -56.5v-192q0 -76 54 -130.5t130 -54.5h389q24 0 42.5 8.5t32.5 21.5q13 13 20.5 28t7.5 31q0 13 -2.5 23.5t-6.5 19.5q15 8 32.5 25t17.5 52q0 22 -9 36.5t-20 24.5
q11 10 20 26t9 38q0 35 -17 51t-29 23q1 8 3 19.5t2 25.5q0 30 -26 54t-68 24v0v0q-24 1 -61.5 1t-76 0.5t-71 0.5h-47.5l10 22t15 32q14 33 27 63t18 44v0v0q4 11 8.5 23t4.5 29q0 24 -8 42t-20 30q-13 11 -26.5 16.5t-26.5 5.5v0zM492 773q3 0 10.5 -2.5t13.5 -8.5
q7 -6 11.5 -16t4.5 -26q0 -10 -2.5 -17l-7.5 -21v0v0q-3 -9 -16.5 -40t-28.5 -64q-14 -33 -25.5 -58l-11.5 -25q-2 -5 -1.5 -10t3.5 -10q3 -4 7.5 -6.5t9.5 -2.5h35h82t95 -0.5t74 -1.5v0h1q28 0 40.5 -13.5t12.5 -23.5q0 -12 -3 -32l-3 -20q-1 -7 2.5 -13.5t10.5 -8.5
l17 -9.5t17 -35.5q0 -22 -15 -35l-15 -13q-6 -2 -9 -7.5t-2 -11.5q0 -6 3.5 -10.5t9.5 -7.5l14 -8.5t14 -31.5q0 -25 -21.5 -37.5l-21.5 -12.5q-4 -1 -7.5 -5t-4.5 -8q-2 -5 -1 -9.5t4 -8.5l5.5 -10.5t5.5 -28.5q0 -4 -4 -13t-12 -17q-8 -7 -19.5 -12.5t-26.5 -5.5h-389
q-59 0 -101 42t-42 102v192q0 23 6.5 44t20.5 40v0.5v0.5l229 315l0.5 0.5t0.5 1.5q7 11 15.5 15.5t14.5 4.5v0z" />
    <glyph glyph-name="uniE926" unicode="&#xe926;" 
d="M225 896q-33 0 -60.5 -9t-46.5 -27q-19 -19 -27.5 -46.5t-8.5 -60.5v-21h-62h-0.5h-0.5q-9 0 -14.5 -6.5t-5.5 -14.5q0 -9 6.5 -14.5t14.5 -5.5h62v-385v-4v-4v-115v-4v-4v-119q0 -8 6 -14t14 -6h103v-144q0 -8 6 -14t14 -6h656q8 0 14 6t6 14v776v1v2v20h103q5 0 10 3
t8 7q2 5 2 10.5t-2 10.5q-3 5 -8 7.5t-10 2.5h-103v21q0 31 -10 58t-29 46t-46 29t-58 10h-533zM225 855h533q25 0 44 -7t31 -20q7 -7 12 -16t9 -19q-14 10 -28 15.5t-27 5.5q-16 0 -35 -5.5t-34 -22.5q-16 -17 -25 -45t-9 -70v-309q-14 -3 -26 -9l-24 -12q-15 -8 -28.5 -13
t-23.5 -5t-23.5 5t-29.5 13q-15 8 -32 15.5t-38 7.5q-20 0 -37.5 -7.5t-32.5 -15.5q-16 -8 -29.5 -13t-23.5 -5t-23.5 5t-28.5 13q-16 8 -33 15.5t-38 7.5q-20 0 -37.5 -7.5t-32.5 -15.5q-9 -4 -17 -8t-15 -7v382v4v4v37q0 28 6.5 46.5t18.5 30.5t30.5 18.5t46.5 6.5v0z
M799 773q9 0 19 -3.5t19 -13.5q4 -4 7.5 -10t6.5 -14h-105q3 9 6.5 15.5t7.5 10.5q8 10 18 12.5t21 2.5zM738 691h121q0 -5 0.5 -10t0.5 -10v-1.5v-0.5v-756h-614v123h471q8 0 14 6t6 14v160q1 2 1 4.5t-1 4.5v114q1 2 1 4t-1 5v323q0 5 0.5 10t0.5 10zM225 323
q11 0 24 -5.5t29 -13.5q15 -8 32.5 -15t37.5 -7q21 0 38 7t33 15q15 8 28.5 13.5t23.5 5.5t23.5 -5.5t29.5 -13.5q15 -8 32 -15t38 -7q20 0 37.5 7t32.5 15q9 4 17 8t15 7v-80q-14 -3 -26 -9l-24 -12q-15 -7 -28.5 -12.5t-23.5 -5.5t-23.5 5.5t-29.5 12.5q-15 8 -32.5 15.5
t-37.5 7.5t-37.5 -7.5t-32.5 -15.5q-16 -7 -29.5 -12.5t-23.5 -5.5t-23.5 5.5t-28.5 12.5q-16 8 -33 15.5t-38 7.5q-20 0 -37.5 -7.5t-32.5 -15.5q-9 -4 -17 -8t-15 -6v80q14 3 26 8.5t24 11.5q15 8 28.5 13.5t23.5 5.5v0zM225 200q11 0 24 -5.5t29 -13.5q15 -8 32.5 -15
t37.5 -7q21 0 38 7t33 15q15 8 28.5 13.5t23.5 5.5t23.5 -5.5t29.5 -13.5q15 -8 32 -15t38 -7q20 0 37.5 7t32.5 15q9 4 17 8t15 7v-119h-573v84q14 3 26 8.5t24 11.5q15 8 28.5 13.5t23.5 5.5v0z" />
    <glyph glyph-name="uniE927" unicode="&#xe927;" 
d="M0 753v-656h1024v656h-1024zM41 712h942v-574h-942v574zM422 556q-1 0 -2.5 -0.5t-3.5 -1.5q-3 -1 -4.5 -4.5t-1.5 -6.5v-261q0 -3 1.5 -6.5t4.5 -4.5q1 -1 3 -1.5t3 -0.5q2 0 4 0.5t3 1.5l226 130q3 2 4.5 5t1.5 7q0 3 -1.5 6t-4.5 5l-226 130q-1 1 -3 1.5t-4 0.5v0z
M221 56q-8 0 -13.5 -7t-4.5 -15q1 -9 7.5 -14t14.5 -5h574q5 0 10 3t8 8q2 4 2 9.5t-2 10.5q-3 5 -8 7.5t-10 2.5h-574h-0.5h-1.5h-0.5h-1.5z" />
    <glyph glyph-name="uniE928" unicode="&#xe928;" 
d="M0 753v-656h1024v656h-1024zM41 712h942v-574h-942v574zM221 56q-8 0 -13.5 -7t-4.5 -15q1 -9 7.5 -14t14.5 -5h574q5 0 10 3t8 8q2 4 2 9.5t-2 10.5q-3 5 -8 7.5t-10 2.5h-574h-0.5h-1.5h-0.5h-1.5z" />
    <glyph glyph-name="uniE929" unicode="&#xe929;" 
d="M0 732v-696h553q5 0 10 2.5t8 7.5t3 10.5t-3 10.5q-3 4 -8 7t-10 3h-512v46l287 223q16 -14 42 -36t30 -26v0v0q25 -21 49.5 -28t42.5 -7q17 0 41.5 7t49.5 28q4 4 29.5 26t42.5 36l59 -48q7 -5 15.5 -4t13.5 8q5 6 4 14.5t-7 13.5l-53 43q28 24 48 41t55 47q58 49 96 82
t56 48v-289q0 -5 2.5 -10t7.5 -8t10.5 -3t10.5 3t7.5 8t2.5 10v430h-983zM41 691h901v-46q-4 -3 -57 -49t-122 -104l-70 -60t-63.5 -54.5t-48.5 -41t-24 -20.5h-1v0q-18 -16 -36 -21t-28 -5q-11 0 -29 5t-36 21v0h-1q-4 4 -24 20.5t-48.5 41t-63.5 54.5l-70 60
q-69 58 -122 104t-57 49v46zM41 591q18 -15 56 -48t96 -82q35 -30 55 -47t48 -41l-255 -199v417zM819 282q-42 0 -79.5 -16.5t-65 -44t-44 -65t-16.5 -79.5q0 -43 16.5 -80t44 -65t65 -44t79.5 -16q43 0 80 16t65 44t44 65t16 80q0 42 -16 79.5t-44 65t-65 44t-80 16.5v0z
M819 241q68 0 116 -48t48 -116t-48 -116t-116 -48t-116 48t-48 116t48 116t116 48zM803 179q-2 0 -3 -1t-1 -3v-115q0 -1 1 -2.5t3 -1.5h33q1 0 2.5 1.5t1.5 2.5v115q0 2 -1.5 3t-2.5 1h-33zM803 15q-2 0 -3 -1t-1 -3v-33q0 -1 1 -2.5t3 -1.5h33q1 0 2.5 1.5t1.5 2.5v33
q0 2 -1.5 3t-2.5 1h-33z" />
    <glyph glyph-name="uniE92A" unicode="&#xe92a;" 
d="M407 806q-72 -2 -117.5 -29t-65.5 -72q-19 -43 -17 -95.5t16 -108.5q-8 -8 -12.5 -20t-2.5 -30q2 -19 7 -32.5t13 -22.5q4 -6 9 -7.5t10 -3.5q3 -16 7.5 -32t11.5 -29q3 -8 7.5 -15t8.5 -13q2 -2 4.5 -4t4.5 -4v-36t-2 -37q-5 -12 -16.5 -22t-30.5 -20q-20 -9 -44 -18.5
t-50 -20.5t-51.5 -25.5t-45.5 -35.5q-21 -21 -35 -50.5t-16 -67.5l-1 -22h821l-1 22q-1 27 -8.5 49t-18.5 40h233l-1 22q-2 33 -14 58.5t-30 43.5q-17 18 -38.5 30t-43.5 22q-22 9 -42.5 16.5t-36.5 15.5q-15 8 -24.5 16t-13.5 17q-1 17 -1.5 31t0.5 29q1 2 3 3t4 3
q3 5 6.5 11t7.5 13q5 11 9 24t6 27q4 2 8 3t7 6q7 8 11.5 19.5t6.5 28.5v0q1 14 -2.5 24t-9.5 18q6 21 12 52t3 65q-1 19 -6.5 37.5t-16.5 34.5q-11 15 -28.5 25.5t-40.5 14.5q-14 16 -36.5 23.5t-49.5 7.5q-37 0 -66 -9t-51 -26q-9 6 -20.5 10.5t-23.5 6.5q-16 21 -44 30
t-61 9h-1zM408 765v0v0q31 0 50.5 -8t25.5 -18l5 -8l10 -1q21 -3 34 -11.5t22 -20.5t13.5 -28t6.5 -34q3 -37 -5 -75t-14 -59l-6 -16l14 -8l4 -5t2 -17q-2 -15 -5 -23.5t-6 -12.5q-2 -3 -3.5 -3.5l-1.5 -0.5l-18 -1l-2 -17q-1 -13 -6 -28.5t-11 -27.5q-3 -7 -6 -12t-6 -9
t-5 -6t-1 -1l-11 -6v-12v-43t2 -46v-2l2 -3q8 -23 27 -39t41 -27t47 -20t49 -19q21 -9 39.5 -20t33.5 -24v0v-1q1 0 1.5 -1t1.5 -1l2 -2t3 -2v0v0q1 0 1.5 -0.5t0.5 -1.5q13 -13 21.5 -30.5t12.5 -39.5h-727q4 22 12.5 39.5t21.5 30.5q16 17 38 29.5t46 23.5q24 10 48.5 19
t47.5 20q22 11 41 27t28 39l1 5q3 26 2.5 46t-0.5 43v12l-11 6q2 -1 -0.5 1t-5.5 6t-6.5 9t-6.5 12q-6 12 -11 27.5t-6 28.5l-2 17l-17 1q-1 0 -2 0.5t-4 3.5q-3 4 -6 12.5t-5 23.5q-2 12 2 17.5t4 4.5l13 8l-4 15q-14 56 -15.5 104.5t13.5 83.5q15 34 48.5 54t97.5 22v0z
M674 744v0h1q25 0 40.5 -6t19.5 -14l5 -8l10 -2q18 -2 28.5 -8.5t17.5 -15.5q6 -10 10 -23t6 -28q2 -31 -4.5 -63t-11.5 -49l-6 -15l14 -8q-1 1 2.5 -2.5t1.5 -13.5q-1 -13 -4 -19.5t-5 -8.5q-2 -3 -2.5 -3t0.5 0l-17 -1l-2 -17q-1 -11 -5 -23.5t-9 -22.5q-3 -5 -5.5 -9.5
t-4.5 -7.5q-1 -2 -2 -3.5t-2 -1.5h-1v-0.5v-0.5l-10 -5v-12v-36t1 -39v-3l2 -2q7 -21 23.5 -34.5t35.5 -22.5q19 -10 40 -18t41 -16q20 -9 38 -19.5t31 -23.5q10 -10 16.5 -23.5t10.5 -30.5h-223q-19 16 -40 27.5t-43 21.5q-26 11 -50 20.5t-43 18.5q-19 10 -31 20t-17 21
q-1 21 -1.5 38t-0.5 36q2 2 4.5 4t4.5 4q4 6 8 13t8 15q7 13 11.5 29t7.5 32q5 2 9.5 3.5t8.5 7.5q8 9 13 22.5t7 32.5q2 17 -2.5 28.5t-11.5 20.5q8 24 15 61t4 78q-2 22 -8.5 43.5t-19.5 39.5v0v1q15 9 36 15t50 6v0z" />
    <glyph glyph-name="uniE92B" unicode="&#xe92b;" 
d="M512 876q-102 0 -191.5 -39t-156 -105.5t-105.5 -156t-39 -191.5t39 -191.5t105.5 -156t156 -105.5t191.5 -39t191.5 39t156 105.5t105.5 156t39 191.5t-39 191.5t-105.5 156t-156 105.5t-191.5 39zM512 835q93 0 175.5 -35.5t143.5 -96.5t96.5 -143.5t35.5 -175.5
t-35.5 -175.5t-96.5 -143.5t-143.5 -96.5t-175.5 -35.5t-175.5 35.5t-143.5 96.5t-96.5 143.5t-35.5 175.5t35.5 175.5t96.5 143.5t143.5 96.5t175.5 35.5v0zM781 687l-103 -117q6 -4 11.5 -9t9.5 -11l117 102q-7 11 -16 19.5t-19 15.5zM512 589q-42 0 -79.5 -16t-65.5 -44
t-44 -65.5t-16 -79.5t16 -79.5t44 -65.5t65.5 -44t79.5 -16t79.5 16t65.5 44t44 65.5t16 79.5t-16 79.5t-44 65.5t-65.5 44t-79.5 16v0zM512 548q68 0 116 -48t48 -116t-48 -116t-116 -48t-116 48t-48 116t48 116t116 48v0zM512 425q-17 0 -29 -12t-12 -29t12 -29t29 -12
t29 12t12 29t-12 29t-29 12zM325 218l-117 -102q7 -11 16 -19.5t19 -15.5l103 117q-6 4 -11.5 9t-9.5 11z" />
    <glyph glyph-name="uniE92C" unicode="&#xe92c;" 
d="M487 451v-59h-469q-8 4 -13.5 -3t-5.5 -13q0 -5 4 -13t11 -13h473v-58l193 84l-193 75v0zM915 653q42 0 71.5 -46.5t29.5 -77.5v-293q-2 -5 -3.5 -7t-1.5 -7q-1 -22 -27 -64.5t-62 -42.5h-609q-41 4 -68 50.5t-27 71.5v66q5 8 13 11.5t11 3.5q8 0 13 -4t5 -11v-55
q-1 -8 14.5 -53.5t48.5 -45.5h586q34 9 52 40t21 54v282q0 6 -20 50t-53 44h-586q-31 -6 -47 -40t-16 -57v-80q-1 -8 -7 -12.5t-11 -4.5q-8 0 -16 5t-8 10v91q0 28 28 75.5t71 46.5h598v0z" />
  </font>
</defs>
</svg>
